<svg xmlns="http://www.w3.org/2000/svg" width="1920" height="1080"><path d="M264,1316L-55,1302L539,1343Z" fill="#ac6b7d" stroke="#ac6b7d" stroke-width="1.51"/><path d="M791,1334L539,1343L1077,1341Z" fill="#a3456b" stroke="#a3456b" stroke-width="1.51"/><path d="M630,-262L1172,-243L1496,-254Z" fill="#f2a5ca" stroke="#f2a5ca" stroke-width="1.51"/><path d="M1657,1329L1077,1341L1959,1339Z" fill="#9c073c" stroke="#9c073c" stroke-width="1.51"/><path d="M1770,1308L1657,1329L1959,1339Z" fill="#890136" stroke="#890136" stroke-width="1.51"/><path d="M1794,-251L1951,-195L2032,-201Z" fill="#c78393" stroke="#c78393" stroke-width="1.51"/><path d="M2046,-82L2040,85L2091,364Z" fill="#ab657d" stroke="#ab657d" stroke-width="1.51"/><path d="M2040,85L2041,285L2091,364Z" fill="#a75a78" stroke="#a75a78" stroke-width="1.51"/><path d="M2046,-82L2091,364L2127,559Z" fill="#a45674" stroke="#a45674" stroke-width="1.51"/><path d="M1945,669L2095,723L2127,559Z" fill="#ad2860" stroke="#ad2860" stroke-width="1.51"/><path d="M1963,546L1945,669L2127,559Z" fill="#b13168" stroke="#b13168" stroke-width="1.51"/><path d="M2091,364L1963,546L2127,559Z" fill="#aa3f6d" stroke="#aa3f6d" stroke-width="1.51"/><path d="M1953,1134L2102,1177L2131,934Z" fill="#91023a" stroke="#91023a" stroke-width="1.51"/><path d="M1887,988L1953,1134L2131,934Z" fill="#9f0541" stroke="#9f0541" stroke-width="1.51"/><path d="M2032,790L1924,867L2131,934Z" fill="#a90d4c" stroke="#a90d4c" stroke-width="1.51"/><path d="M1924,867L1887,988L2131,934Z" fill="#aa0948" stroke="#aa0948" stroke-width="1.51"/><path d="M2095,723L2032,790L2131,934Z" fill="#a8104e" stroke="#a8104e" stroke-width="1.51"/><path d="M2102,1177L2093,1307L2131,934Z" fill="#860035" stroke="#860035" stroke-width="1.51"/><path d="M2127,559L2095,723L2131,934Z" fill="#a91555" stroke="#a91555" stroke-width="1.51"/><path d="M1970,-36L2040,85L2046,-82Z" fill="#b67386" stroke="#b67386" stroke-width="1.51"/><path d="M2040,85L1944,108L2041,285Z" fill="#ae637f" stroke="#ae637f" stroke-width="1.51"/><path d="M1886,371L1963,546L2091,364Z" fill="#ae4975" stroke="#ae4975" stroke-width="1.51"/><path d="M1959,1339L2093,1307L2102,1177Z" fill="#7a002d" stroke="#7a002d" stroke-width="1.51"/><path d="M1953,1134L1959,1339L2102,1177Z" fill="#850035" stroke="#850035" stroke-width="1.51"/><path d="M1944,108L1965,291L2041,285Z" fill="#af5e7e" stroke="#af5e7e" stroke-width="1.51"/><path d="M1965,291L1886,371L2091,364Z" fill="#ab5379" stroke="#ab5379" stroke-width="1.51"/><path d="M1945,669L2032,790L2095,723Z" fill="#b1195c" stroke="#b1195c" stroke-width="1.51"/><path d="M2041,285L1965,291L2091,364Z" fill="#a75577" stroke="#a75577" stroke-width="1.51"/><path d="M1970,-36L1944,108L2040,85Z" fill="#b56e85" stroke="#b56e85" stroke-width="1.51"/><path d="M2032,-201L1951,-195L2046,-82Z" fill="#bd7d8b" stroke="#bd7d8b" stroke-width="1.51"/><path d="M1951,-195L1970,-36L2046,-82Z" fill="#bd7c8b" stroke="#bd7c8b" stroke-width="1.51"/><path d="M630,-262L921,-218L1172,-243Z" fill="#ebb1d5" stroke="#ebb1d5" stroke-width="1.51"/><path d="M1945,669L1924,867L2032,790Z" fill="#b4135b" stroke="#b4135b" stroke-width="1.51"/><path d="M1824,821L1924,867L1945,669Z" fill="#b9135e" stroke="#b9135e" stroke-width="1.51"/><path d="M1887,988L1809,1112L1953,1134Z" fill="#a00345" stroke="#a00345" stroke-width="1.51"/><path d="M1809,1112L1770,1308L1953,1134Z" fill="#960041" stroke="#960041" stroke-width="1.51"/><path d="M1953,1134L1770,1308L1959,1339Z" fill="#890038" stroke="#890038" stroke-width="1.51"/><path d="M1776,654L1945,669L1963,546Z" fill="#bb2f6e" stroke="#bb2f6e" stroke-width="1.51"/><path d="M1807,495L1776,654L1963,546Z" fill="#be3875" stroke="#be3875" stroke-width="1.51"/><path d="M1886,371L1807,495L1963,546Z" fill="#b84579" stroke="#b84579" stroke-width="1.51"/><path d="M1944,108L1838,200L1965,291Z" fill="#b56383" stroke="#b56383" stroke-width="1.51"/><path d="M1774,36L1944,108L1970,-36Z" fill="#be738c" stroke="#be738c" stroke-width="1.51"/><path d="M1839,-115L1774,36L1970,-36Z" fill="#c57b92" stroke="#c57b92" stroke-width="1.51"/><path d="M1951,-195L1839,-115L1970,-36Z" fill="#c37e91" stroke="#c37e91" stroke-width="1.51"/><path d="M1838,200L1886,371L1965,291Z" fill="#b45b81" stroke="#b45b81" stroke-width="1.51"/><path d="M1776,654L1824,821L1945,669Z" fill="#c01e69" stroke="#c01e69" stroke-width="1.51"/><path d="M1794,-251L1839,-115L1951,-195Z" fill="#cb8496" stroke="#cb8496" stroke-width="1.51"/><path d="M1774,36L1838,200L1944,108Z" fill="#bd6c8b" stroke="#bd6c8b" stroke-width="1.51"/><path d="M1824,821L1887,988L1924,867Z" fill="#b50c53" stroke="#b50c53" stroke-width="1.51"/><path d="M1382,1251L1077,1341L1657,1329Z" fill="#a80f4e" stroke="#a80f4e" stroke-width="1.51"/><path d="M1838,200L1749,398L1886,371Z" fill="#b95a83" stroke="#b95a83" stroke-width="1.51"/><path d="M1749,398L1807,495L1886,371Z" fill="#bc4e7f" stroke="#bc4e7f" stroke-width="1.51"/><path d="M1824,821L1739,1020L1887,988Z" fill="#b70a4f" stroke="#b70a4f" stroke-width="1.51"/><path d="M1739,1020L1809,1112L1887,988Z" fill="#ab064a" stroke="#ab064a" stroke-width="1.51"/><path d="M1626,241L1647,366L1749,398Z" fill="#c65d88" stroke="#c65d88" stroke-width="1.51"/><path d="M1654,1135L1770,1308L1809,1112Z" fill="#9f0344" stroke="#9f0344" stroke-width="1.51"/><path d="M1638,836L1739,1020L1824,821Z" fill="#c21158" stroke="#c21158" stroke-width="1.51"/><path d="M1776,654L1658,731L1824,821Z" fill="#c91c6a" stroke="#c91c6a" stroke-width="1.51"/><path d="M1774,36L1626,241L1838,200Z" fill="#c66c8d" stroke="#c66c8d" stroke-width="1.51"/><path d="M1626,241L1749,398L1838,200Z" fill="#c36189" stroke="#c36189" stroke-width="1.51"/><path d="M1794,-251L1676,-68L1839,-115Z" fill="#d28599" stroke="#d28599" stroke-width="1.51"/><path d="M1676,-68L1774,36L1839,-115Z" fill="#cf8096" stroke="#cf8096" stroke-width="1.51"/><path d="M1496,-254L1596,-183L1794,-251Z" fill="#e38ea0" stroke="#e38ea0" stroke-width="1.51"/><path d="M1585,551L1776,654L1807,495Z" fill="#c93c7a" stroke="#c93c7a" stroke-width="1.51"/><path d="M1658,731L1638,836L1824,821Z" fill="#ca1765" stroke="#ca1765" stroke-width="1.51"/><path d="M1584,56L1626,241L1774,36Z" fill="#d07393" stroke="#d07393" stroke-width="1.51"/><path d="M1596,-183L1676,-68L1794,-251Z" fill="#db899c" stroke="#db899c" stroke-width="1.51"/><path d="M1739,1020L1654,1135L1809,1112Z" fill="#ac054a" stroke="#ac054a" stroke-width="1.51"/><path d="M1749,398L1585,551L1807,495Z" fill="#c8497f" stroke="#c8497f" stroke-width="1.51"/><path d="M1654,1135L1657,1329L1770,1308Z" fill="#9b043f" stroke="#9b043f" stroke-width="1.51"/><path d="M184,1307L-55,1302L264,1316Z" fill="#b27382" stroke="#b27382" stroke-width="1.51"/><path d="M1638,836L1595,1008L1739,1020Z" fill="#c40f53" stroke="#c40f53" stroke-width="1.51"/><path d="M1647,366L1585,551L1749,398Z" fill="#cc5184" stroke="#cc5184" stroke-width="1.51"/><path d="M1585,551L1658,731L1776,654Z" fill="#cf3074" stroke="#cf3074" stroke-width="1.51"/><path d="M1676,-68L1584,56L1774,36Z" fill="#d47d96" stroke="#d47d96" stroke-width="1.51"/><path d="M1595,1008L1654,1135L1739,1020Z" fill="#b7094e" stroke="#b7094e" stroke-width="1.51"/><path d="M1172,-243L1295,-213L1496,-254Z" fill="#f398b9" stroke="#f398b9" stroke-width="1.51"/><path d="M1584,56L1520,104L1626,241Z" fill="#d77494" stroke="#d77494" stroke-width="1.51"/><path d="M1536,970L1595,1008L1638,836Z" fill="#cc1257" stroke="#cc1257" stroke-width="1.51"/><path d="M1466,493L1585,551L1647,366Z" fill="#d64e85" stroke="#d64e85" stroke-width="1.51"/><path d="M1453,1241L1382,1251L1657,1329Z" fill="#a60a47" stroke="#a60a47" stroke-width="1.51"/><path d="M1654,1135L1480,1174L1657,1329Z" fill="#a90746" stroke="#a90746" stroke-width="1.51"/><path d="M1480,1174L1453,1241L1657,1329Z" fill="#a90947" stroke="#a90947" stroke-width="1.51"/><path d="M1585,551L1453,667L1658,731Z" fill="#d93378" stroke="#d93378" stroke-width="1.51"/><path d="M1596,-183L1460,-22L1676,-68Z" fill="#e38a9f" stroke="#e38a9f" stroke-width="1.51"/><path d="M1460,-22L1584,56L1676,-68Z" fill="#e0839b" stroke="#e0839b" stroke-width="1.51"/><path d="M1626,241L1482,241L1647,366Z" fill="#d1658e" stroke="#d1658e" stroke-width="1.51"/><path d="M1595,1008L1480,1174L1654,1135Z" fill="#b80a4e" stroke="#b80a4e" stroke-width="1.51"/><path d="M1453,667L1638,836L1658,731Z" fill="#d91e6f" stroke="#d91e6f" stroke-width="1.51"/><path d="M1436,376L1466,493L1647,366Z" fill="#d6598c" stroke="#d6598c" stroke-width="1.51"/><path d="M1453,667L1441,881L1638,836Z" fill="#da1d6e" stroke="#da1d6e" stroke-width="1.51"/><path d="M1482,241L1436,376L1647,366Z" fill="#d36390" stroke="#d36390" stroke-width="1.51"/><path d="M1520,104L1482,241L1626,241Z" fill="#d87094" stroke="#d87094" stroke-width="1.51"/><path d="M1441,881L1536,970L1638,836Z" fill="#d3175f" stroke="#d3175f" stroke-width="1.51"/><path d="M1536,970L1480,1174L1595,1008Z" fill="#c20e53" stroke="#c20e53" stroke-width="1.51"/><path d="M1496,-254L1460,-22L1596,-183Z" fill="#e98fa4" stroke="#e98fa4" stroke-width="1.51"/><path d="M1388,1027L1480,1174L1536,970Z" fill="#c41259" stroke="#c41259" stroke-width="1.51"/><path d="M1460,-22L1520,104L1584,56Z" fill="#df7f9d" stroke="#df7f9d" stroke-width="1.51"/><path d="M1466,493L1453,667L1585,551Z" fill="#db4184" stroke="#db4184" stroke-width="1.51"/><path d="M921,-218L1053,-217L1172,-243Z" fill="#efa7cd" stroke="#efa7cd" stroke-width="1.51"/><path d="M1370,-47L1460,-22L1496,-254Z" fill="#e98faa" stroke="#e98faa" stroke-width="1.51"/><path d="M1359,142L1482,241L1520,104Z" fill="#db759d" stroke="#db759d" stroke-width="1.51"/><path d="M1441,881L1388,1027L1536,970Z" fill="#d2165e" stroke="#d2165e" stroke-width="1.51"/><path d="M1332,709L1441,881L1453,667Z" fill="#e1237c" stroke="#e1237c" stroke-width="1.51"/><path d="M1388,1027L1375,1142L1480,1174Z" fill="#be115b" stroke="#be115b" stroke-width="1.51"/><path d="M1295,-213L1370,-47L1496,-254Z" fill="#ee93b1" stroke="#ee93b1" stroke-width="1.51"/><path d="M1460,-22L1359,142L1520,104Z" fill="#e07ea2" stroke="#e07ea2" stroke-width="1.51"/><path d="M1152,1263L1077,1341L1382,1251Z" fill="#af1d5d" stroke="#af1d5d" stroke-width="1.51"/><path d="M1326,564L1453,667L1466,493Z" fill="#df438b" stroke="#df438b" stroke-width="1.51"/><path d="M1332,709L1363,891L1441,881Z" fill="#dd2175" stroke="#dd2175" stroke-width="1.51"/><path d="M1363,891L1388,1027L1441,881Z" fill="#d61a66" stroke="#d61a66" stroke-width="1.51"/><path d="M1370,-47L1359,142L1460,-22Z" fill="#e485a9" stroke="#e485a9" stroke-width="1.51"/><path d="M1324,207L1436,376L1482,241Z" fill="#d86b9c" stroke="#d86b9c" stroke-width="1.51"/><path d="M1359,142L1324,207L1482,241Z" fill="#dc74a2" stroke="#dc74a2" stroke-width="1.51"/><path d="M1375,1142L1453,1241L1480,1174Z" fill="#b40e54" stroke="#b40e54" stroke-width="1.51"/><path d="M1375,1142L1382,1251L1453,1241Z" fill="#b20f54" stroke="#b20f54" stroke-width="1.51"/><path d="M1436,376L1306,436L1466,493Z" fill="#db5896" stroke="#db5896" stroke-width="1.51"/><path d="M1306,436L1326,564L1466,493Z" fill="#de5095" stroke="#de5095" stroke-width="1.51"/><path d="M1326,564L1332,709L1453,667Z" fill="#e13989" stroke="#e13989" stroke-width="1.51"/><path d="M1324,207L1306,436L1436,376Z" fill="#d9669e" stroke="#d9669e" stroke-width="1.51"/><path d="M1332,709L1152,784L1363,891Z" fill="#e32682" stroke="#e32682" stroke-width="1.51"/><path d="M1168,134L1359,142L1370,-47Z" fill="#e582b0" stroke="#e582b0" stroke-width="1.51"/><path d="M1375,1142L1186,1115L1382,1251Z" fill="#bb1360" stroke="#bb1360" stroke-width="1.51"/><path d="M1186,1115L1152,1263L1382,1251Z" fill="#b91962" stroke="#b91962" stroke-width="1.51"/><path d="M1238,1045L1375,1142L1388,1027Z" fill="#c81764" stroke="#c81764" stroke-width="1.51"/><path d="M1363,891L1238,1045L1388,1027Z" fill="#d31a68" stroke="#d31a68" stroke-width="1.51"/><path d="M1130,358L1306,436L1324,207Z" fill="#dc6aa8" stroke="#dc6aa8" stroke-width="1.51"/><path d="M1295,-213L1155,-93L1370,-47Z" fill="#f094bb" stroke="#f094bb" stroke-width="1.51"/><path d="M1155,-93L1168,134L1370,-47Z" fill="#e98db9" stroke="#e98db9" stroke-width="1.51"/><path d="M1238,1045L1186,1115L1375,1142Z" fill="#c61868" stroke="#c61868" stroke-width="1.51"/><path d="M1187,706L1152,784L1332,709Z" fill="#e7318d" stroke="#e7318d" stroke-width="1.51"/><path d="M1152,784L1238,1045L1363,891Z" fill="#de2376" stroke="#de2376" stroke-width="1.51"/><path d="M1140,220L1130,358L1324,207Z" fill="#dd75af" stroke="#dd75af" stroke-width="1.51"/><path d="M1326,564L1187,706L1332,709Z" fill="#e53990" stroke="#e53990" stroke-width="1.51"/><path d="M1168,134L1324,207L1359,142Z" fill="#e17aad" stroke="#e17aad" stroke-width="1.51"/><path d="M1306,436L1152,500L1326,564Z" fill="#e2529f" stroke="#e2529f" stroke-width="1.51"/><path d="M1152,500L1187,706L1326,564Z" fill="#e4499b" stroke="#e4499b" stroke-width="1.51"/><path d="M1168,134L1140,220L1324,207Z" fill="#e07bb2" stroke="#e07bb2" stroke-width="1.51"/><path d="M1172,-243L1155,-93L1295,-213Z" fill="#f19bc1" stroke="#f19bc1" stroke-width="1.51"/><path d="M1130,358L1152,500L1306,436Z" fill="#df61a7" stroke="#df61a7" stroke-width="1.51"/><path d="M1152,500L1072,547L1187,706Z" fill="#e351a0" stroke="#e351a0" stroke-width="1.51"/><path d="M994,952L1186,1115L1238,1045Z" fill="#cf2d73" stroke="#cf2d73" stroke-width="1.51"/><path d="M1152,784L994,952L1238,1045Z" fill="#db337a" stroke="#db337a" stroke-width="1.51"/><path d="M1130,358L1063,422L1152,500Z" fill="#dd68ac" stroke="#dd68ac" stroke-width="1.51"/><path d="M1029,807L994,952L1152,784Z" fill="#df3e89" stroke="#df3e89" stroke-width="1.51"/><path d="M1011,-55L987,33L1155,-93Z" fill="#e79cc7" stroke="#e79cc7" stroke-width="1.51"/><path d="M1155,-93L987,33L1168,134Z" fill="#e692c0" stroke="#e692c0" stroke-width="1.51"/><path d="M1053,-217L1155,-93L1172,-243Z" fill="#efa0c7" stroke="#efa0c7" stroke-width="1.51"/><path d="M1007,1115L1152,1263L1186,1115Z" fill="#bd2b6d" stroke="#bd2b6d" stroke-width="1.51"/><path d="M994,952L1007,1115L1186,1115Z" fill="#ca3676" stroke="#ca3676" stroke-width="1.51"/><path d="M1007,721L1152,784L1187,706Z" fill="#e63e94" stroke="#e63e94" stroke-width="1.51"/><path d="M1072,547L1007,721L1187,706Z" fill="#e44c9c" stroke="#e44c9c" stroke-width="1.51"/><path d="M995,193L1140,220L1168,134Z" fill="#de83b9" stroke="#de83b9" stroke-width="1.51"/><path d="M987,33L995,193L1168,134Z" fill="#df8cbf" stroke="#df8cbf" stroke-width="1.51"/><path d="M995,193L1130,358L1140,220Z" fill="#db7db7" stroke="#db7db7" stroke-width="1.51"/><path d="M1007,1115L1077,1341L1152,1263Z" fill="#b32e68" stroke="#b32e68" stroke-width="1.51"/><path d="M1007,721L1029,807L1152,784Z" fill="#e34193" stroke="#e34193" stroke-width="1.51"/><path d="M1053,-217L1011,-55L1155,-93Z" fill="#eca1c8" stroke="#eca1c8" stroke-width="1.51"/><path d="M1063,422L1072,547L1152,500Z" fill="#df62aa" stroke="#df62aa" stroke-width="1.51"/><path d="M995,193L930,398L1063,422Z" fill="#d67bb9" stroke="#d67bb9" stroke-width="1.51"/><path d="M995,193L1063,422L1130,358Z" fill="#d878b5" stroke="#d878b5" stroke-width="1.51"/><path d="M878,1192L887,1278L1007,1115Z" fill="#b73e75" stroke="#b73e75" stroke-width="1.51"/><path d="M921,-218L1011,-55L1053,-217Z" fill="#eba7cf" stroke="#eba7cf" stroke-width="1.51"/><path d="M875,548L1007,721L1072,547Z" fill="#e15ca8" stroke="#e15ca8" stroke-width="1.51"/><path d="M1063,422L930,398L1072,547Z" fill="#dc6bb0" stroke="#dc6bb0" stroke-width="1.51"/><path d="M930,398L875,548L1072,547Z" fill="#dd6bb2" stroke="#dd6bb2" stroke-width="1.51"/><path d="M887,1278L791,1334L1077,1341Z" fill="#a83b69" stroke="#a83b69" stroke-width="1.51"/><path d="M1007,1115L887,1278L1077,1341Z" fill="#b2366d" stroke="#b2366d" stroke-width="1.51"/><path d="M987,33L914,85L995,193Z" fill="#dd94c5" stroke="#dd94c5" stroke-width="1.51"/><path d="M875,548L899,719L1007,721Z" fill="#e15aa5" stroke="#e15aa5" stroke-width="1.51"/><path d="M860,233L930,398L995,193Z" fill="#d686bf" stroke="#d686bf" stroke-width="1.51"/><path d="M994,952L867,1027L1007,1115Z" fill="#ce417e" stroke="#ce417e" stroke-width="1.51"/><path d="M856,809L994,952L1029,807Z" fill="#de478e" stroke="#de478e" stroke-width="1.51"/><path d="M1007,721L899,719L1029,807Z" fill="#e44a9b" stroke="#e44a9b" stroke-width="1.51"/><path d="M899,719L856,809L1029,807Z" fill="#e14f9a" stroke="#e14f9a" stroke-width="1.51"/><path d="M837,-32L987,33L1011,-55Z" fill="#e3a1cd" stroke="#e3a1cd" stroke-width="1.51"/><path d="M921,-218L837,-32L1011,-55Z" fill="#e6a9d1" stroke="#e6a9d1" stroke-width="1.51"/><path d="M867,1027L878,1192L1007,1115Z" fill="#c2427b" stroke="#c2427b" stroke-width="1.51"/><path d="M856,809L867,1027L994,952Z" fill="#d94b87" stroke="#d94b87" stroke-width="1.51"/><path d="M914,85L860,233L995,193Z" fill="#d990c4" stroke="#d990c4" stroke-width="1.51"/><path d="M837,-32L914,85L987,33Z" fill="#df9ecc" stroke="#df9ecc" stroke-width="1.51"/><path d="M630,-262L740,-172L921,-218Z" fill="#e4bada" stroke="#e4bada" stroke-width="1.51"/><path d="M740,-172L837,-32L921,-218Z" fill="#e4b1d6" stroke="#e4b1d6" stroke-width="1.51"/><path d="M860,233L763,351L930,398Z" fill="#d187c0" stroke="#d187c0" stroke-width="1.51"/><path d="M738,513L875,548L930,398Z" fill="#d976b7" stroke="#d976b7" stroke-width="1.51"/><path d="M763,351L738,513L930,398Z" fill="#d480bc" stroke="#d480bc" stroke-width="1.51"/><path d="M856,809L744,1027L867,1027Z" fill="#d55286" stroke="#d55286" stroke-width="1.51"/><path d="M867,1027L751,1140L878,1192Z" fill="#bf4b7e" stroke="#bf4b7e" stroke-width="1.51"/><path d="M875,548L717,715L899,719Z" fill="#de64aa" stroke="#de64aa" stroke-width="1.51"/><path d="M718,44L860,233L914,85Z" fill="#d79bca" stroke="#d79bca" stroke-width="1.51"/><path d="M740,-172L785,-39L837,-32Z" fill="#dfb1d6" stroke="#dfb1d6" stroke-width="1.51"/><path d="M837,-32L718,44L914,85Z" fill="#dba4cf" stroke="#dba4cf" stroke-width="1.51"/><path d="M700,827L744,1027L856,809Z" fill="#d85a91" stroke="#d85a91" stroke-width="1.51"/><path d="M738,513L717,715L875,548Z" fill="#db6fb2" stroke="#db6fb2" stroke-width="1.51"/><path d="M717,715L856,809L899,719Z" fill="#e05ba2" stroke="#e05ba2" stroke-width="1.51"/><path d="M751,1140L791,1334L878,1192Z" fill="#b14977" stroke="#b14977" stroke-width="1.51"/><path d="M878,1192L791,1334L887,1278Z" fill="#ad4370" stroke="#ad4370" stroke-width="1.51"/><path d="M785,-39L718,44L837,-32Z" fill="#dbabd3" stroke="#dbabd3" stroke-width="1.51"/><path d="M730,286L763,351L860,233Z" fill="#cf8fc4" stroke="#cf8fc4" stroke-width="1.51"/><path d="M718,44L730,286L860,233Z" fill="#d299c9" stroke="#d299c9" stroke-width="1.51"/><path d="M744,1027L751,1140L867,1027Z" fill="#c55182" stroke="#c55182" stroke-width="1.51"/><path d="M717,715L700,827L856,809Z" fill="#dd5f9f" stroke="#dd5f9f" stroke-width="1.51"/><path d="M189,-232L402,-190L630,-262Z" fill="#e3d1e6" stroke="#e3d1e6" stroke-width="1.51"/><path d="M718,44L539,93L730,286Z" fill="#cea6d0" stroke="#cea6d0" stroke-width="1.51"/><path d="M613,595L717,715L738,513Z" fill="#d975b4" stroke="#d975b4" stroke-width="1.51"/><path d="M700,827L632,948L744,1027Z" fill="#d35f8e" stroke="#d35f8e" stroke-width="1.51"/><path d="M740,-172L589,-7L785,-39Z" fill="#dab7d9" stroke="#dab7d9" stroke-width="1.51"/><path d="M751,1140L539,1343L791,1334Z" fill="#a85075" stroke="#a85075" stroke-width="1.51"/><path d="M616,1094L539,1343L751,1140Z" fill="#b2587f" stroke="#b2587f" stroke-width="1.51"/><path d="M560,388L738,513L763,351Z" fill="#cf89c1" stroke="#cf89c1" stroke-width="1.51"/><path d="M589,-7L718,44L785,-39Z" fill="#d7b1d5" stroke="#d7b1d5" stroke-width="1.51"/><path d="M539,93L530,271L730,286Z" fill="#cda2ce" stroke="#cda2ce" stroke-width="1.51"/><path d="M744,1027L616,1094L751,1140Z" fill="#c05784" stroke="#c05784" stroke-width="1.51"/><path d="M730,286L560,388L763,351Z" fill="#cb92c5" stroke="#cb92c5" stroke-width="1.51"/><path d="M630,-262L589,-7L740,-172Z" fill="#dbbedc" stroke="#dbbedc" stroke-width="1.51"/><path d="M632,948L616,1094L744,1027Z" fill="#c75d89" stroke="#c75d89" stroke-width="1.51"/><path d="M560,388L613,595L738,513Z" fill="#d384be" stroke="#d384be" stroke-width="1.51"/><path d="M613,595L596,708L717,715Z" fill="#da72af" stroke="#da72af" stroke-width="1.51"/><path d="M603,791L700,827L717,715Z" fill="#da67a3" stroke="#da67a3" stroke-width="1.51"/><path d="M530,271L560,388L730,286Z" fill="#cb99ca" stroke="#cb99ca" stroke-width="1.51"/><path d="M596,708L603,791L717,715Z" fill="#dc6ca9" stroke="#dc6ca9" stroke-width="1.51"/><path d="M589,-7L539,93L718,44Z" fill="#d4b1d6" stroke="#d4b1d6" stroke-width="1.51"/><path d="M603,791L632,948L700,827Z" fill="#d7669a" stroke="#d7669a" stroke-width="1.51"/><path d="M482,1314L264,1316L539,1343Z" fill="#a66078" stroke="#a66078" stroke-width="1.51"/><path d="M402,-190L422,-9L589,-7Z" fill="#dbc5e0" stroke="#dbc5e0" stroke-width="1.51"/><path d="M560,388L483,422L613,595Z" fill="#d38dc3" stroke="#d38dc3" stroke-width="1.51"/><path d="M483,422L433,499L613,595Z" fill="#d78cc2" stroke="#d78cc2" stroke-width="1.51"/><path d="M482,1314L539,1343L616,1094Z" fill="#ac5b7c" stroke="#ac5b7c" stroke-width="1.51"/><path d="M473,1111L482,1314L616,1094Z" fill="#b76084" stroke="#b76084" stroke-width="1.51"/><path d="M479,960L473,1111L616,1094Z" fill="#c7668b" stroke="#c7668b" stroke-width="1.51"/><path d="M402,-190L589,-7L630,-262Z" fill="#dec5e1" stroke="#dec5e1" stroke-width="1.51"/><path d="M603,791L467,889L632,948Z" fill="#d86a99" stroke="#d86a99" stroke-width="1.51"/><path d="M467,889L479,960L632,948Z" fill="#d66c93" stroke="#d66c93" stroke-width="1.51"/><path d="M479,960L616,1094L632,948Z" fill="#cd648c" stroke="#cd648c" stroke-width="1.51"/><path d="M460,720L596,708L613,595Z" fill="#dc78b2" stroke="#dc78b2" stroke-width="1.51"/><path d="M433,499L460,720L613,595Z" fill="#db82ba" stroke="#db82ba" stroke-width="1.51"/><path d="M596,708L460,720L603,791Z" fill="#de71ac" stroke="#de71ac" stroke-width="1.51"/><path d="M460,720L467,889L603,791Z" fill="#dd72a5" stroke="#dd72a5" stroke-width="1.51"/><path d="M426,252L530,271L539,93Z" fill="#d0a9d2" stroke="#d0a9d2" stroke-width="1.51"/><path d="M446,41L539,93L589,-7Z" fill="#d5b7d9" stroke="#d5b7d9" stroke-width="1.51"/><path d="M422,-9L446,41L589,-7Z" fill="#d8bddc" stroke="#d8bddc" stroke-width="1.51"/><path d="M-145,-188L33,-189L189,-232Z" fill="#ede7f2" stroke="#ede7f2" stroke-width="1.51"/><path d="M530,271L483,422L560,388Z" fill="#cd9aca" stroke="#cd9aca" stroke-width="1.51"/><path d="M426,252L483,422L530,271Z" fill="#cda1cd" stroke="#cda1cd" stroke-width="1.51"/><path d="M446,41L426,252L539,93Z" fill="#d2b2d6" stroke="#d2b2d6" stroke-width="1.51"/><path d="M330,195L426,252L446,41Z" fill="#d3b3d7" stroke="#d3b3d7" stroke-width="1.51"/><path d="M433,499L321,657L460,720Z" fill="#de87bb" stroke="#de87bb" stroke-width="1.51"/><path d="M473,1111L310,1183L482,1314Z" fill="#b56584" stroke="#b56584" stroke-width="1.51"/><path d="M306,127L330,195L446,41Z" fill="#d4b9da" stroke="#d4b9da" stroke-width="1.51"/><path d="M460,720L280,793L467,889Z" fill="#e079a8" stroke="#e079a8" stroke-width="1.51"/><path d="M340,948L473,1111L479,960Z" fill="#d06e90" stroke="#d06e90" stroke-width="1.51"/><path d="M467,889L340,948L479,960Z" fill="#d97296" stroke="#d97296" stroke-width="1.51"/><path d="M310,1183L264,1316L482,1314Z" fill="#af667f" stroke="#af667f" stroke-width="1.51"/><path d="M298,391L433,499L483,422Z" fill="#d49ac9" stroke="#d49ac9" stroke-width="1.51"/><path d="M426,252L298,391L483,422Z" fill="#d0a2ce" stroke="#d0a2ce" stroke-width="1.51"/><path d="M340,948L310,1183L473,1111Z" fill="#c76e8e" stroke="#c76e8e" stroke-width="1.51"/><path d="M280,793L340,948L467,889Z" fill="#dc789f" stroke="#dc789f" stroke-width="1.51"/><path d="M321,657L280,793L460,720Z" fill="#e281b3" stroke="#e281b3" stroke-width="1.51"/><path d="M402,-190L236,-42L422,-9Z" fill="#decde4" stroke="#decde4" stroke-width="1.51"/><path d="M285,499L321,657L433,499Z" fill="#dd91c4" stroke="#dd91c4" stroke-width="1.51"/><path d="M298,391L285,499L433,499Z" fill="#d89bca" stroke="#d89bca" stroke-width="1.51"/><path d="M422,-9L306,127L446,41Z" fill="#d7bedd" stroke="#d7bedd" stroke-width="1.51"/><path d="M230,-171L236,-42L402,-190Z" fill="#e2d4e8" stroke="#e2d4e8" stroke-width="1.51"/><path d="M330,195L298,391L426,252Z" fill="#d1acd3" stroke="#d1acd3" stroke-width="1.51"/><path d="M189,-232L230,-171L402,-190Z" fill="#e5d8ea" stroke="#e5d8ea" stroke-width="1.51"/><path d="M236,-42L306,127L422,-9Z" fill="#dac5e1" stroke="#dac5e1" stroke-width="1.51"/><path d="M115,963L81,1104L310,1183Z" fill="#cd7c94" stroke="#cd7c94" stroke-width="1.51"/><path d="M285,499L187,686L321,657Z" fill="#e291c1" stroke="#e291c1" stroke-width="1.51"/><path d="M187,686L280,793L321,657Z" fill="#e688b8" stroke="#e688b8" stroke-width="1.51"/><path d="M135,196L298,391L330,195Z" fill="#d4b4d7" stroke="#d4b4d7" stroke-width="1.51"/><path d="M280,793L113,861L340,948Z" fill="#e281a4" stroke="#e281a4" stroke-width="1.51"/><path d="M113,861L115,963L340,948Z" fill="#e1839e" stroke="#e1839e" stroke-width="1.51"/><path d="M115,963L310,1183L340,948Z" fill="#d27994" stroke="#d27994" stroke-width="1.51"/><path d="M135,196L103,385L298,391Z" fill="#d5b3d7" stroke="#d5b3d7" stroke-width="1.51"/><path d="M306,127L135,196L330,195Z" fill="#d7bcdb" stroke="#d7bcdb" stroke-width="1.51"/><path d="M236,-42L115,91L306,127Z" fill="#dcc9e2" stroke="#dcc9e2" stroke-width="1.51"/><path d="M184,1307L264,1316L310,1183Z" fill="#b36d82" stroke="#b36d82" stroke-width="1.51"/><path d="M81,586L187,686L285,499Z" fill="#e498c6" stroke="#e498c6" stroke-width="1.51"/><path d="M81,1104L184,1307L310,1183Z" fill="#bd748c" stroke="#bd748c" stroke-width="1.51"/><path d="M103,385L285,499L298,391Z" fill="#d9a6d0" stroke="#d9a6d0" stroke-width="1.51"/><path d="M115,91L135,196L306,127Z" fill="#d9c3df" stroke="#d9c3df" stroke-width="1.51"/><path d="M103,385L81,586L285,499Z" fill="#e0a4cf" stroke="#e0a4cf" stroke-width="1.51"/><path d="M187,686L113,861L280,793Z" fill="#e888b2" stroke="#e888b2" stroke-width="1.51"/><path d="M230,-171L102,-49L236,-42Z" fill="#e4d9ea" stroke="#e4d9ea" stroke-width="1.51"/><path d="M102,-49L115,91L236,-42Z" fill="#e1d3e8" stroke="#e1d3e8" stroke-width="1.51"/><path d="M33,-189L102,-49L189,-232Z" fill="#e8e1ef" stroke="#e8e1ef" stroke-width="1.51"/><path d="M189,-232L102,-49L230,-171Z" fill="#e7ddec" stroke="#e7ddec" stroke-width="1.51"/><path d="M33,-189L29,-108L102,-49Z" fill="#e8e2f0" stroke="#e8e2f0" stroke-width="1.51"/><path d="M81,1104L0,1141L184,1307Z" fill="#c37c90" stroke="#c37c90" stroke-width="1.51"/><path d="M0,1141L-55,1302L184,1307Z" fill="#bc7b8b" stroke="#bc7b8b" stroke-width="1.51"/><path d="M7,661L113,861L187,686Z" fill="#ed91bb" stroke="#ed91bb" stroke-width="1.51"/><path d="M81,586L7,661L187,686Z" fill="#ea9ac4" stroke="#ea9ac4" stroke-width="1.51"/><path d="M-2,402L-55,534L81,586Z" fill="#e6aad2" stroke="#e6aad2" stroke-width="1.51"/><path d="M-2,402L81,586L103,385Z" fill="#e1aed4" stroke="#e1aed4" stroke-width="1.51"/><path d="M10,185L-2,402L103,385Z" fill="#dabcdc" stroke="#dabcdc" stroke-width="1.51"/><path d="M7,661L-27,818L113,861Z" fill="#ee92b7" stroke="#ee92b7" stroke-width="1.51"/><path d="M102,-49L-14,96L115,91Z" fill="#e2d4e8" stroke="#e2d4e8" stroke-width="1.51"/><path d="M115,91L10,185L135,196Z" fill="#dcc8e2" stroke="#dcc8e2" stroke-width="1.51"/><path d="M10,185L103,385L135,196Z" fill="#dac0dd" stroke="#dac0dd" stroke-width="1.51"/><path d="M-27,818L-65,946L113,861Z" fill="#ea8faa" stroke="#ea8faa" stroke-width="1.51"/><path d="M-14,96L10,185L115,91Z" fill="#decee5" stroke="#decee5" stroke-width="1.51"/><path d="M113,861L-65,946L115,963Z" fill="#e68ba3" stroke="#e68ba3" stroke-width="1.51"/><path d="M-65,946L81,1104L115,963Z" fill="#dd889c" stroke="#dd889c" stroke-width="1.51"/><path d="M-65,946L0,1141L81,1104Z" fill="#d6869a" stroke="#d6869a" stroke-width="1.51"/><path d="M29,-108L-14,96L102,-49Z" fill="#e5dcec" stroke="#e5dcec" stroke-width="1.51"/><path d="M-55,534L7,661L81,586Z" fill="#eba2cb" stroke="#eba2cb" stroke-width="1.51"/><path d="M-164,216L-167,393L-2,402Z" fill="#ddbfde" stroke="#ddbfde" stroke-width="1.51"/><path d="M-122,1183L-55,1302L0,1141Z" fill="#c48091" stroke="#c48091" stroke-width="1.51"/><path d="M-162,719L-27,818L7,661Z" fill="#f198be" stroke="#f198be" stroke-width="1.51"/><path d="M-164,216L-2,402L10,185Z" fill="#ddc4e0" stroke="#ddc4e0" stroke-width="1.51"/><path d="M-128,-114L-14,96L29,-108Z" fill="#e8e0ee" stroke="#e8e0ee" stroke-width="1.51"/><path d="M-128,-114L29,-108L33,-189Z" fill="#ece6f2" stroke="#ece6f2" stroke-width="1.51"/><path d="M-145,-188L-128,-114L33,-189Z" fill="#eee9f3" stroke="#eee9f3" stroke-width="1.51"/><path d="M-128,-114L-209,49L-14,96Z" fill="#e8deed" stroke="#e8deed" stroke-width="1.51"/><path d="M-143,486L-55,534L-2,402Z" fill="#e6b0d5" stroke="#e6b0d5" stroke-width="1.51"/><path d="M-65,946L-122,1183L0,1141Z" fill="#d48799" stroke="#d48799" stroke-width="1.51"/><path d="M-55,534L-162,719L7,661Z" fill="#eea1c8" stroke="#eea1c8" stroke-width="1.51"/><path d="M-14,96L-164,216L10,185Z" fill="#e0cde4" stroke="#e0cde4" stroke-width="1.51"/><path d="M-215,986L-122,1183L-65,946Z" fill="#dd8b9d" stroke="#dd8b9d" stroke-width="1.51"/><path d="M-132,865L-65,946L-27,818Z" fill="#ec91ab" stroke="#ec91ab" stroke-width="1.51"/><path d="M-167,393L-143,486L-2,402Z" fill="#e4b6d8" stroke="#e4b6d8" stroke-width="1.51"/><path d="M-209,49L-164,216L-14,96Z" fill="#e3d3e8" stroke="#e3d3e8" stroke-width="1.51"/><path d="M-162,719L-132,865L-27,818Z" fill="#f196b6" stroke="#f196b6" stroke-width="1.51"/><path d="M-122,1183L-158,1289L-55,1302Z" fill="#bf7f8c" stroke="#bf7f8c" stroke-width="1.51"/><path d="M-143,486L-162,719L-55,534Z" fill="#eda7ce" stroke="#eda7ce" stroke-width="1.51"/><path d="M-132,865L-215,986L-65,946Z" fill="#eb91a5" stroke="#eb91a5" stroke-width="1.51"/><path d="M-215,986L-158,1289L-122,1183Z" fill="#ce8698" stroke="#ce8698" stroke-width="1.51"/><path d="M-145,-188L-209,49L-128,-114Z" fill="#ede8f2" stroke="#ede8f2" stroke-width="1.51"/><path d="M-162,719L-215,986L-132,865Z" fill="#ef95b0" stroke="#ef95b0" stroke-width="1.51"/><path d="M-167,393L-162,719L-143,486Z" fill="#ecadd3" stroke="#ecadd3" stroke-width="1.51"/><path d="M-167,393L-215,986L-162,719Z" fill="#f49ec3" stroke="#f49ec3" stroke-width="1.51"/><path d="M-209,49L-167,393L-164,216Z" fill="#e2cce4" stroke="#e2cce4" stroke-width="1.51"/><path d="M-209,49L-215,986L-167,393Z" fill="#eab4d7" stroke="#eab4d7" stroke-width="1.51"/></svg>